<svg xmlns="http://www.w3.org/2000/svg" viewBox="0 0 427 43"><defs><style>.cls-1{fill:#105bd8;}.cls-2,.cls-3,.cls-4{isolation:isolate;}.cls-3,.cls-4{font-size:24px;fill:#fff;font-family:HelveticaNeue-Light, Helvetica Neue;font-weight:300;}.cls-4{letter-spacing:-0.11em;}.cls-5{letter-spacing:0em;}</style></defs><g id="Layer_2" data-name="Layer 2"><g id="Layer_1-2" data-name="Layer 1"><rect width="427" height="43"/><polygon class="cls-1" points="184 0 205.5 21.5 184 43 427 43 427 0 184 0"/><g id="Humans_in_Space" data-name="Humans in Space" class="cls-2"><text class="cls-3" transform="translate(222.8 28.63)">Humans in Space</text></g><polygon class="cls-1" points="178.26 43 199.76 21.5 178.26 0 178.26 0 92 0 113.5 21.5 92 43 92 43 178.26 43 178.26 43 178.26 43"/><g id="Humans_in_Space-2" data-name="Humans in Space" class="cls-2"><text class="cls-4" transform="translate(116.6 28.39)">T<tspan class="cls-5" x="10.68" y="0">opics</tspan></text></g><polygon class="cls-1" points="86.26 43 107.76 21.5 86.26 0 86.26 0 43 0 43 0 0 0 0 43 0 43 0 43 86.26 43 86.26 43 86.26 43"/><g id="Humans_in_Space-3" data-name="Humans in Space" class="cls-2"><text class="cls-3" transform="translate(14.59 28.97)">Home</text></g></g></g></svg>